#!OML:ASF C:\Vicon Data\Big\jianyuan-13\jianyuan\Session 1\Capture.male.ASF
:FULLY-SPECIFIED
:DEGREES
84
root -8.589761 17.677700 -19.774055 9.946251 -9.353641 0.730723
lowerback -9.370382 1.261823 -2.964427 
upperback 3.174929 2.108010 -0.476946 
thorax 8.551782 0.878539 1.510257 
lowerneck -4.595889 -1.464172 2.718142 
upperneck 22.545591 -1.823065 -2.527680 
head 7.620265 -0.864154 -1.432666 
rclavicle 0.000000 0.000000 
rhumerus -27.001390 -4.540707 -89.759183 
rradius 39.114037 
rwrist 25.889568 
rhand -16.722505 -16.200067 
rfingers 0.000000 
rthumb 9.503122 -45.965809 
lclavicle 0.000000 0.000000 
lhumerus -43.721478 44.127069 59.047421 
lradius 22.357364 
lwrist -69.521592 
lhand -22.854724 1.926136 
lfingers 0.000000 
lthumb 3.583413 31.875749 
rfemur -16.520752 2.845698 27.288187 
rtibia 27.204322 
rfoot -22.092174 -7.059823 
rtoes -19.915227 
lfemur -37.948938 -9.543961 -12.707484 
ltibia 44.310479 
lfoot -10.673335 1.005479 
ltoes -36.177694 
85
root -8.604877 17.678721 -19.703739 9.841870 -9.406892 0.789560
lowerback -9.248591 1.276981 -3.054978 
upperback 3.220511 2.136645 -0.481095 
thorax 8.526148 0.887879 1.558318 
lowerneck -4.613359 -1.462103 2.618295 
upperneck 22.545703 -1.814930 -2.494081 
head 7.625111 -0.865477 -1.404287 
rclavicle 0.000000 0.000000 
rhumerus -26.808248 -4.246122 -89.935326 
rradius 39.285073 
rwrist 25.581807 
rhand -16.677589 -16.100478 
rfingers 0.000000 
rthumb 9.546462 -45.864189 
lclavicle 0.000000 0.000000 
lhumerus -44.990722 44.559287 57.667094 
lradius 22.260374 
lwrist -69.684304 
lhand -23.032478 2.199897 
lfingers 0.000000 
lthumb 3.411760 32.152374 
rfemur -16.049750 2.564230 27.244931 
rtibia 26.962186 
rfoot -22.075698 -6.802314 
rtoes -20.028303 
lfemur -37.774459 -9.764739 -12.804775 
ltibia 42.413064 
lfoot -10.664222 1.041550 
ltoes -35.884024 
86
root -8.618881 17.677670 -19.633503 9.848039 -9.529307 0.812572
lowerback -9.214945 1.359686 -3.137119 
upperback 3.211589 2.257850 -0.502312 
thorax 8.489226 0.943837 1.600146 
lowerneck -4.600383 -1.551312 2.724756 
upperneck 22.555802 -1.930333 -2.590053 
head 7.620354 -0.919769 -1.462547 
rclavicle 0.000000 0.000000 
rhumerus -26.682380 -3.997763 -90.129350 
rradius 39.499973 
rwrist 25.148413 
rhand -16.944155 -16.437601 
rfingers 0.000000 
rthumb 9.289218 -46.212892 
lclavicle 0.000000 0.000000 
lhumerus -46.517771 45.176010 55.827534 
lradius 22.078960 
lwrist -70.735274 
lhand -23.054191 1.985784 
lfingers 0.000000 
lthumb 3.390809 31.938586 
rfemur -15.708130 2.508481 27.214012 
rtibia 26.753574 
rfoot -22.077584 -6.687192 
rtoes -19.868618 
lfemur -37.643850 -9.619849 -12.993126 
ltibia 40.469203 
lfoot -10.544537 1.057569 
ltoes -35.886399 
87
root -8.631596 17.675976 -19.563499 9.910114 -9.571677 0.758496
lowerback -9.231220 1.434464 -3.069151 
upperback 3.192888 2.352862 -0.544323 
thorax 8.478129 0.995343 1.532925 
lowerneck -4.574032 -1.592678 2.800822 
upperneck 22.522909 -2.007132 -2.536553 
head 7.602534 -0.945216 -1.462822 
rclavicle 0.000000 0.000000 
rhumerus -26.580752 -3.955715 -90.348382 
rradius 39.722463 
rwrist 24.963360 
rhand -16.795523 -16.383997 
rfingers 0.000000 
rthumb 9.432633 -46.152922 
lclavicle 0.000000 0.000000 
lhumerus -47.793113 45.387521 54.292690 
lradius 21.964002 
lwrist -71.445210 
lhand -23.187124 1.945725 
lfingers 0.000000 
lthumb 3.262372 31.900499 
rfemur -15.426244 2.504101 27.272375 
rtibia 26.560370 
rfoot -22.130320 -6.649819 
rtoes -20.079689 
lfemur -37.532835 -9.536546 -13.103914 
ltibia 38.465551 
lfoot -10.287553 1.161298 
ltoes -36.031885 
88
root -8.648504 17.675380 -19.491146 9.854063 -9.679372 0.803275
lowerback -9.157890 1.499975 -3.104225 
upperback 3.205146 2.448003 -0.614725 
thorax 8.446152 1.042448 1.490899 
lowerneck -4.695056 -1.486166 2.789855 
upperneck 22.577659 -1.906624 -2.321618 
head 7.648835 -0.879185 -1.384944 
rclavicle 0.000000 0.000000 
rhumerus -26.462570 -3.967146 -90.554798 
rradius 39.900704 
rwrist 25.269069 
rhand -16.813891 -16.314130 
rfingers 0.000000 
rthumb 9.414916 -46.083835 
lclavicle 0.000000 0.000000 
lhumerus -48.710847 45.110937 53.338273 
lradius 22.011462 
lwrist -71.341154 
lhand -23.170116 2.190274 
lfingers 0.000000 
lthumb 3.278810 32.144783 
rfemur -14.989612 2.957932 27.222196 
rtibia 26.387111 
rfoot -22.337752 -6.993863 
rtoes -20.210648 
lfemur -37.220439 -9.288450 -13.399536 
ltibia 36.391441 
lfoot -10.088646 1.269701 
ltoes -36.433174 
89
root -8.661040 17.673111 -19.418895 9.888667 -9.677427 0.845572
lowerback -9.173194 1.526301 -3.181975 
upperback 3.191490 2.493964 -0.623714 
thorax 8.435586 1.061214 1.532544 
lowerneck -4.692877 -1.582333 2.859207 
upperneck 22.580520 -2.023146 -2.438481 
head 7.643496 -0.939041 -1.443963 
rclavicle 0.000000 0.000000 
rhumerus -26.378107 -3.616112 -90.724431 
rradius 40.180059 
rwrist 24.948854 
rhand -16.854435 -16.492822 
rfingers 0.000000 
rthumb 9.375825 -46.264303 
lclavicle 0.000000 0.000000 
lhumerus -50.033620 45.424503 51.830484 
lradius 21.925282 
lwrist -71.807001 
lhand -22.988058 2.181637 
lfingers 0.000000 
lthumb 3.454593 32.133364 
rfemur -14.689101 2.880364 27.191092 
rtibia 26.244700 
rfoot -22.436619 -6.943630 
rtoes -20.503487 
lfemur -36.984060 -9.042894 -13.728144 
ltibia 34.263165 
lfoot -9.818507 1.306059 
ltoes -35.668469 
90
root -8.674817 17.670274 -19.346696 10.012776 -9.803324 0.827651
lowerback -9.279083 1.632362 -3.137526 
upperback 3.165896 2.640893 -0.710309 
thorax 8.468772 1.137063 1.442685 
lowerneck -4.701488 -1.714093 2.999285 
upperneck 22.574702 -2.205757 -2.518031 
head 7.634945 -1.021296 -1.507639 
rclavicle 0.000000 0.000000 
rhumerus -26.273716 -3.623199 -90.912876 
rradius 40.407527 
rwrist 25.120301 
rhand -16.684922 -16.286191 
rfingers 0.000000 
rthumb 9.539348 -46.050266 
lclavicle 0.000000 0.000000 
lhumerus -50.991897 45.491009 50.543738 
lradius 21.855358 
lwrist -71.517163 
lhand -22.677625 2.072036 
lfingers 0.000000 
lthumb 3.754387 32.018691 
rfemur -14.481316 2.961194 27.203712 
rtibia 26.117564 
rfoot -22.515023 -6.912622 
rtoes -20.584413 
lfemur -36.784237 -8.643468 -14.017932 
ltibia 32.127196 
lfoot -9.604597 1.572637 
ltoes -35.959905 
91
root -8.689486 17.665250 -19.273551 10.092065 -9.840727 0.808270
lowerback -9.329575 1.629287 -3.169901 
upperback 3.142299 2.638964 -0.669395 
thorax 8.469343 1.133289 1.505244 
lowerneck -4.807052 -1.567981 2.663391 
upperneck 22.593601 -2.043036 -2.144226 
head 7.674594 -0.938361 -1.317170 
rclavicle 0.000000 0.000000 
rhumerus -26.165880 -3.326619 -91.061519 
rradius 40.685433 
rwrist 24.776591 
rhand -16.590463 -16.270892 
rfingers 0.000000 
rthumb 9.630474 -46.030767 
lclavicle 0.000000 0.000000 
lhumerus -52.352852 45.688324 49.128831 
lradius 21.858109 
lwrist -71.936920 
lhand -22.559407 1.960812 
lfingers 0.000000 
lthumb 3.868589 31.905397 
rfemur -14.181772 2.959930 27.233536 
rtibia 25.950590 
rfoot -22.645056 -6.820453 
rtoes -20.370813 
lfemur -36.513860 -8.232714 -14.356259 
ltibia 29.990023 
lfoot -9.251799 1.658858 
ltoes -36.983288 
92
root -8.704452 17.660520 -19.200131 10.141030 -9.891203 0.804281
lowerback -9.348840 1.692993 -3.175107 
upperback 3.119500 2.728043 -0.707321 
thorax 8.453485 1.177958 1.482557 
lowerneck -4.810123 -1.673685 2.736564 
upperneck 22.622831 -2.176896 -2.242790 
head 7.678781 -1.004318 -1.372614 
rclavicle 0.000000 0.000000 
rhumerus -26.163855 -2.880942 -91.170378 
rradius 41.124631 
rwrist 24.296223 
rhand -16.460564 -16.381809 
rfingers 0.000000 
rthumb 9.755809 -46.135804 
lclavicle 0.000000 0.000000 
lhumerus -53.743814 45.803265 47.481998 
lradius 21.745827 
lwrist -73.294214 
lhand -22.888642 2.045092 
lfingers 0.000000 
lthumb 3.550640 31.995178 
rfemur -13.823901 2.895616 27.245559 
rtibia 25.740528 
rfoot -22.768876 -6.670867 
rtoes -20.062873 
lfemur -36.176989 -7.719453 -14.793891 
ltibia 27.821857 
lfoot -8.948639 1.810103 
ltoes -38.754066 
